<?xml version="1.0" standalone="no"?>
<!DOCTYPE svg PUBLIC "-//W3C//DTD SVG 20010904//EN"
 "http://www.w3.org/TR/2001/REC-SVG-20010904/DTD/svg10.dtd">
<svg version="1.0" xmlns="http://www.w3.org/2000/svg"
 width="1080.000000pt" height="437.000000pt" viewBox="0 0 1080.000000 437.000000"
 preserveAspectRatio="xMidYMid meet">
<metadata>
Created by potrace 1.16, written by Peter Selinger 2001-2019
</metadata>
<g transform="translate(0.000000,437.000000) scale(0.100000,-0.100000)"
fill="#000000" stroke="none">
<path d="M5257 3928 c-14 -57 -317 -1487 -317 -1497 0 -8 29 -11 97 -9 l97 3
113 530 c62 292 118 555 124 585 l12 55 17 -95 c10 -52 55 -317 101 -588 l83
-493 49 3 50 3 356 581 c196 320 357 580 359 579 2 -2 -218 -1037 -243 -1142
-5 -23 -4 -23 95 -23 55 0 100 4 100 8 0 4 72 347 160 760 88 414 160 754 160
757 0 3 -60 5 -132 5 l-133 0 -350 -570 c-192 -313 -351 -567 -353 -566 -3 4
-192 1109 -192 1125 0 7 -44 11 -124 11 -120 0 -124 -1 -129 -22z"/>
<path d="M9255 3550 c-68 -14 -152 -50 -215 -92 -250 -166 -360 -539 -235
-795 82 -166 250 -256 480 -256 117 0 198 19 302 70 101 49 102 52 68 123 -16
33 -32 60 -36 60 -5 0 -29 -13 -55 -30 -168 -106 -407 -96 -532 23 -58 55 -85
120 -90 219 -11 225 91 418 265 501 61 29 77 32 158 32 72 -1 101 -6 143 -24
98 -44 172 -154 172 -258 l0 -43 -303 0 -304 0 -11 -64 c-7 -35 -12 -71 -12
-80 0 -15 36 -16 389 -16 339 0 390 2 395 15 3 9 8 50 12 93 22 263 -120 471
-354 521 -59 12 -177 13 -237 1z"/>
<path d="M7067 3534 c-121 -29 -251 -111 -328 -207 -88 -109 -148 -277 -149
-413 -1 -320 222 -518 564 -502 164 8 292 64 406 178 186 186 244 495 134 712
-34 66 -116 149 -183 183 -121 61 -309 82 -444 49z m304 -176 c113 -52 170
-141 177 -278 8 -161 -36 -280 -147 -391 -89 -88 -149 -113 -281 -114 -84 0
-102 3 -157 29 -72 33 -135 95 -166 164 -31 71 -35 192 -9 279 49 160 184 296
329 333 69 17 192 7 254 -22z"/>
<path d="M7806 3513 c6 -27 184 -1078 184 -1086 0 -4 50 -6 112 -5 l111 3 338
545 c186 300 338 548 339 553 0 4 -51 7 -112 7 l-113 -1 -259 -420 c-142 -231
-260 -418 -262 -417 -3 3 -144 819 -144 833 0 3 -45 5 -99 5 -89 0 -99 -2 -95
-17z"/>
<path d="M6640 2214 c-250 -48 -423 -240 -408 -453 13 -172 112 -266 410 -388
300 -122 376 -193 347 -322 -32 -145 -144 -221 -324 -221 -164 0 -309 57 -428
169 l-68 64 -65 -64 c-35 -35 -64 -69 -64 -75 0 -20 104 -117 164 -153 127
-76 248 -111 412 -118 142 -7 237 10 334 58 211 106 314 361 225 556 -48 106
-155 183 -385 279 -182 75 -248 109 -293 152 -77 74 -72 168 13 253 142 142
441 114 622 -59 33 -31 62 -52 66 -46 5 5 35 37 67 72 l59 63 -61 57 c-67 65
-163 119 -268 152 -54 17 -100 23 -200 25 -71 2 -141 1 -155 -1z"/>
<path d="M4866 2093 c-8 -25 -36 -162 -36 -174 0 -6 39 -9 97 -7 l97 3 17 80
c28 124 34 115 -75 115 -81 0 -95 -2 -100 -17z"/>
<path d="M5605 1806 c-102 -24 -204 -77 -277 -144 l-27 -25 14 59 c24 100 28
95 -77 92 l-93 -3 -111 -520 c-61 -286 -114 -535 -118 -552 l-8 -33 96 0 c53
0 96 2 96 5 0 3 36 175 80 382 l80 378 47 43 c151 137 295 188 428 151 52 -15
111 -74 120 -121 5 -26 -15 -137 -75 -419 -45 -211 -84 -392 -86 -402 -5 -16
2 -18 92 -15 l97 3 84 390 c97 443 104 508 64 588 -42 86 -149 142 -288 152
-49 3 -100 -1 -138 -9z"/>
<path d="M8940 1804 c-90 -18 -209 -71 -283 -128 -51 -39 -53 -38 -33 47 l14
57 -99 0 c-54 0 -99 -2 -99 -4 0 -2 -52 -248 -115 -547 -63 -298 -115 -546
-115 -551 0 -4 42 -8 94 -8 l94 0 10 43 c6 23 43 197 84 386 l73 345 72 57
c135 107 265 156 371 139 98 -16 152 -71 152 -154 0 -20 -36 -204 -80 -409
-44 -205 -80 -381 -80 -390 0 -16 10 -17 92 -15 l92 3 87 400 c98 446 104 499
65 580 -29 62 -55 87 -129 120 -46 21 -76 27 -150 30 -50 2 -103 1 -117 -1z"/>
<path d="M4785 1718 c-8 -40 -62 -289 -118 -553 l-103 -480 94 -3 c52 -1 97 0
100 2 6 6 231 1064 232 1089 0 15 -11 17 -94 17 l-95 0 -16 -72z"/>
<path d="M7280 1763 c0 -10 41 -255 91 -545 l90 -528 -52 -88 c-118 -196 -128
-205 -253 -212 l-90 -5 -17 -80 c-10 -44 -18 -84 -18 -89 -1 -4 56 -6 127 -4
114 3 132 6 178 30 28 15 76 54 105 87 34 37 203 301 454 707 220 356 413 669
428 696 l29 48 -109 0 -108 0 -255 -414 c-140 -228 -256 -413 -258 -411 -2 2
-142 810 -142 823 0 1 -45 2 -100 2 -88 0 -100 -2 -100 -17z"/>
<path d="M9820 1744 c-196 -66 -349 -240 -396 -450 -22 -103 -16 -266 15 -344
45 -118 147 -213 271 -251 84 -26 199 -34 275 -20 76 14 187 67 243 116 l42
37 -20 26 c-11 15 -33 42 -49 61 l-29 35 -47 -42 c-119 -104 -317 -111 -435
-13 -126 103 -137 336 -26 525 37 64 127 141 194 167 81 32 208 32 273 0 45
-21 119 -86 119 -103 0 -17 24 -7 81 35 32 23 59 48 59 55 0 23 -93 113 -145
140 -76 38 -140 52 -250 52 -80 -1 -115 -6 -175 -26z"/>
</g>
</svg>
